<svg width="512" height="512" viewBox="0 0 512 512" fill="none" xmlns="http://www.w3.org/2000/svg">
  <!-- Top Teal Petal -->
  <path d="M256 128C256 128 320 64 320 128C320 192 256 256 256 256C256 256 192 192 192 128C192 64 256 128 256 128Z" fill="#00897B" transform="translate(0, -50) scale(1.5)"/>
  <path d="M256 256 L340 160 Q380 120 340 80 Q300 40 256 120 Q212 40 172 80 Q132 120 172 160 L256 256" fill="#00897B" />
  
  <!-- Use a simpler geometric approach for the "Lovable" style logo -->
  <!-- Top Teal -->
  <path d="M256 256 L310 202 C340 172 340 124 310 94 C280 64 232 64 202 94 L256 256Z" fill="#00897B"/>
  
  <!-- Bottom Teal - Mirrored -->
  <path d="M256 256 L202 310 C172 340 172 388 202 418 C232 448 280 448 310 418 L256 256Z" fill="#00897B"/>
  
  <!-- Left Pink -->
  <path d="M256 256 L202 202 C172 172 124 172 94 202 C64 232 64 280 94 310 L256 256Z" fill="#F48FB1"/>
  
  <!-- Right Pink - Mirrored -->
  <path d="M256 256 L310 310 C340 340 388 340 418 310 C448 280 448 232 418 202 L256 256Z" fill="#F48FB1"/>
</svg>
